# xmcd
#
# Track frame offsets:
#	150
#	14497
#	24815
#	39080
#	50785
#	62322
#	77397
#	94022
#	107122
#	123337
#	139725
#	153515
#	164002
#	175802
#	188390
#	199725
#	212245
#	232977
#
# Disc length: 3246 seconds
#
# Revision: 2
# Processed by: cddbd v1.5.2PL0 Copyright (c) Steve Scherf et al.
# Submitted via: audiograbber 1.83.01
#
DISCID=df0cac12
DTITLE=Various Artist - That Ole Devil Called Love [Disc 1]
DYEAR=2001
DGENRE=Easy Listening
TTITLE0=Nat King Cole - When I Fall In Love
TTITLE1=Dean Martin - Memories Are Made Of This
TTITLE2=Andy Williams - Can't Take My Eyes Off You
TTITLE3=Matt Monroe - From Russia With Love
TTITLE4=Bing Crosby and Rosemary Clooney - True Love
TTITLE5=Perry Como - And I Love You So
TTITLE6=Morris Albert - Feelings
TTITLE7=Tony Bennett - I Left My Heart In San Francisco
TTITLE8=Johnny Mathis - Misty
TTITLE9=The Righteous Brothers - Unchained Melody
TTITLE10=The Walker Brothers - The Sun Ain't Gonna Shine Anymore
TTITLE11=The Everly Brothers - All I Have To Do Is Dream
TTITLE12=Danny Williams - Moon River
TTITLE13=Al Martino - Spanish Eyes
TTITLE14=Jack Jones - Wives And Lovers
TTITLE15=Neil Sedaka - Laughter In The Rain
TTITLE16=Peter Skellern - You're A Lady
TTITLE17=Noel Harrison - The Windmills Of Your Mind
EXTD=YEAR: 2001
EXTT0=
EXTT1=
EXTT2=
EXTT3=
EXTT4=
EXTT5=
EXTT6=
EXTT7=
EXTT8=
EXTT9=
EXTT10=
EXTT11=
EXTT12=
EXTT13=
EXTT14=
EXTT15=
EXTT16=
EXTT17=
PLAYORDER=
